# Blender v2.79 (sub 0) OBJ File: ''
# www.blender.org
mtllib cube.mtl
o Cube
v 100.000000 0.000000 -99.999992
v 100.000000 0.000000 100.000000
v -100.000015 0.000000 99.999985
v -99.999962 0.000000 -100.000038
v 100.000046 200.000000 -99.999947
v 99.999931 200.000000 100.000061
v -100.000038 200.000000 99.999962
v -99.999992 200.000000 -100.000000
v 100.000000 0.000000 0.000006
v 0.000018 0.000000 -100.000015
v 100.000023 100.000000 -99.999969
v 0.000000 0.000000 99.999985
v 99.999962 100.000000 100.000023
v -99.999985 0.000000 -0.000030
v -100.000023 100.000000 99.999977
v -99.999977 100.000000 -100.000023
v 99.999985 200.000000 0.000054
v 0.000024 200.000000 -99.999977
v -0.000054 200.000000 100.000015
v -100.000015 200.000000 -0.000018
v 0.000024 100.000000 -100.000000
v -100.000000 100.000000 -0.000024
v -0.000030 100.000000 100.000000
v 99.999992 100.000000 0.000030
v -0.000015 200.000000 0.000018
v 0.000006 0.000000 -0.000012
v 100.000000 0.000000 50.000000
v -49.999973 0.000000 -100.000023
v 100.000038 150.000000 -99.999962
v -50.000008 0.000000 99.999985
v 99.999954 150.000000 100.000046
v -99.999977 0.000000 -50.000031
v -100.000023 150.000000 99.999969
v -99.999985 150.000000 -100.000015
v 99.999962 200.000000 50.000053
v -49.999989 200.000000 -99.999985
v -50.000046 200.000000 99.999985
v -100.000000 200.000000 -50.000011
v 100.000000 0.000000 -49.999992
v 50.000011 0.000000 -100.000000
v 100.000015 50.000000 -99.999985
v 50.000000 0.000000 99.999992
v 99.999985 50.000000 100.000015
v -100.000000 0.000000 49.999977
v -100.000023 50.000000 99.999977
v -99.999969 50.000000 -100.000023
v 100.000023 200.000000 -49.999947
v 50.000034 200.000000 -99.999962
v 49.999939 200.000000 100.000038
v -100.000023 200.000000 49.999973
v -49.999977 100.000000 -100.000015
v 50.000023 100.000000 -99.999985
v 0.000024 150.000000 -99.999985
v 0.000021 50.000000 -100.000000
v -99.999985 100.000000 -50.000023
v -100.000015 100.000000 49.999977
v -99.999992 50.000000 -0.000027
v -100.000000 150.000000 -0.000021
v -50.000023 100.000000 99.999985
v 49.999966 100.000000 100.000015
v -0.000015 50.000000 99.999992
v -0.000042 150.000000 100.000000
v 99.999977 100.000000 50.000023
v 100.000015 100.000000 -49.999969
v 100.000000 50.000000 0.000018
v 99.999985 150.000000 0.000042
v -0.000034 200.000000 50.000011
v 0.000004 200.000000 -49.999981
v 49.999985 200.000000 0.000036
v -50.000011 200.000000 0.000000
v -49.999992 0.000000 -0.000021
v 50.000000 0.000000 -0.000003
v 0.000012 0.000000 -50.000011
v 0.000003 0.000000 49.999989
v 50.000000 0.000000 49.999992
v 50.000008 0.000000 -50.000000
v -49.999981 0.000000 -50.000023
v -50.000000 200.000000 -49.999992
v 50.000011 200.000000 -49.999966
v 49.999966 200.000000 50.000034
v 100.000015 150.000000 -49.999958
v 100.000000 50.000000 -49.999981
v 99.999985 50.000000 50.000011
v 49.999954 150.000000 100.000023
v 49.999981 50.000000 100.000000
v -50.000023 50.000000 99.999985
v -100.000015 150.000000 49.999977
v -100.000015 50.000000 49.999977
v -99.999985 50.000000 -50.000023
v 50.000019 50.000000 -99.999985
v 50.000031 150.000000 -99.999977
v -49.999981 150.000000 -100.000000
v -49.999973 50.000000 -100.000015
v -99.999992 150.000000 -50.000011
v -50.000034 150.000000 99.999985
v 99.999969 150.000000 50.000042
v -50.000031 200.000000 49.999992
v -49.999996 0.000000 49.999981
v 100.000000 0.000000 75.000000
v -74.999969 0.000000 -100.000023
v 100.000046 175.000000 -99.999954
v -75.000015 0.000000 99.999985
v 99.999939 175.000000 100.000046
v -99.999969 0.000000 -75.000038
v -100.000023 175.000000 99.999962
v -99.999985 175.000000 -100.000000
v 99.999954 200.000000 75.000061
v -74.999985 200.000000 -99.999992
v -75.000038 200.000000 99.999977
v -100.000000 200.000000 -75.000008
v 100.000000 0.000000 -24.999994
v 25.000015 0.000000 -100.000000
v 100.000023 75.000000 -99.999977
v 25.000000 0.000000 99.999985
v 99.999977 75.000000 100.000023
v -99.999992 0.000000 24.999973
v -100.000023 75.000000 99.999977
v -99.999977 75.000000 -100.000023
v 100.000000 200.000000 -24.999947
v 25.000031 200.000000 -99.999969
v 24.999943 200.000000 100.000023
v -100.000023 200.000000 24.999977
v -74.999977 100.000000 -100.000023
v 25.000023 100.000000 -99.999992
v 0.000024 175.000000 -99.999985
v 0.000022 75.000000 -100.000000
v -99.999985 100.000000 -75.000023
v -100.000000 100.000000 24.999977
v -99.999985 25.000000 -0.000028
v -100.000000 125.000000 -0.000022
v -75.000023 100.000000 99.999985
v 24.999969 100.000000 100.000000
v -0.000007 25.000000 99.999985
v -0.000036 125.000000 100.000000
v 99.999969 100.000000 75.000023
v 100.000000 100.000000 -24.999969
v 100.000000 25.000000 0.000012
v 99.999985 125.000000 0.000036
v -0.000044 200.000000 75.000015
v -0.000005 200.000000 -24.999981
v 74.999985 200.000000 0.000045
v -25.000011 200.000000 0.000009
v -74.999985 0.000000 -0.000025
v 25.000004 0.000000 -0.000007
v 0.000015 0.000000 -75.000015
v 0.000004 0.000000 24.999989
v 100.000000 0.000000 25.000004
v -24.999977 0.000000 -100.000023
v 100.000023 125.000000 -99.999962
v -25.000004 0.000000 99.999985
v 99.999962 125.000000 100.000038
v -99.999985 0.000000 -25.000031
v -100.000023 125.000000 99.999977
v -99.999985 125.000000 -100.000023
v 99.999977 200.000000 25.000053
v -24.999983 200.000000 -99.999985
v -25.000051 200.000000 100.000000
v -100.000000 200.000000 -25.000015
v 100.000000 0.000000 -74.999992
v 75.000008 0.000000 -100.000000
v 100.000000 25.000000 -99.999985
v 75.000000 0.000000 100.000000
v 99.999985 25.000000 100.000000
v -100.000000 0.000000 74.999977
v -100.000023 25.000000 99.999977
v -99.999962 25.000000 -100.000023
v 100.000038 200.000000 -74.999947
v 75.000038 200.000000 -99.999954
v 74.999939 200.000000 100.000046
v -100.000023 200.000000 74.999969
v -24.999977 100.000000 -100.000000
v 75.000023 100.000000 -99.999977
v 0.000024 125.000000 -99.999992
v 0.000019 25.000000 -100.000000
v -99.999992 100.000000 -25.000023
v -100.000023 100.000000 74.999977
v -100.000000 75.000000 -0.000025
v -100.000000 175.000000 -0.000019
v -25.000027 100.000000 99.999992
v 74.999962 100.000000 100.000023
v -0.000022 75.000000 100.000000
v -0.000048 175.000000 100.000000
v 99.999985 100.000000 25.000027
v 100.000023 100.000000 -74.999969
v 100.000000 75.000000 0.000024
v 99.999985 175.000000 0.000048
v -0.000025 200.000000 25.000015
v 0.000014 200.000000 -74.999977
v 24.999985 200.000000 0.000027
v -75.000015 200.000000 -0.000009
v -24.999992 0.000000 -0.000016
v 75.000000 0.000000 0.000001
v 0.000009 0.000000 -25.000011
v 0.000001 0.000000 74.999985
v 25.000000 0.000000 49.999992
v 75.000000 0.000000 49.999996
v 50.000000 0.000000 24.999996
v 50.000000 0.000000 74.999992
v 25.000010 0.000000 -50.000008
v 75.000000 0.000000 -49.999996
v 50.000011 0.000000 -75.000000
v 50.000000 0.000000 -25.000000
v -74.999977 0.000000 -50.000023
v -24.999985 0.000000 -50.000019
v -49.999977 0.000000 -75.000023
v -49.999989 0.000000 -25.000021
v -50.000008 200.000000 -24.999996
v -49.999992 200.000000 -74.999985
v -24.999996 200.000000 -49.999989
v -75.000000 200.000000 -50.000000
v 50.000000 200.000000 -24.999964
v 50.000023 200.000000 -74.999962
v 75.000015 200.000000 -49.999954
v 25.000006 200.000000 -49.999969
v 49.999954 200.000000 75.000038
v 49.999977 200.000000 25.000036
v 74.999962 200.000000 50.000046
v 24.999966 200.000000 50.000023
v 100.000000 150.000000 -24.999958
v 100.000023 150.000000 -74.999962
v 100.000015 125.000000 -49.999966
v 100.000023 175.000000 -49.999954
v 100.000000 50.000000 -24.999983
v 100.000000 50.000000 -74.999985
v 100.000000 25.000000 -49.999989
v 100.000000 75.000000 -49.999977
v 99.999985 50.000000 75.000015
v 99.999992 50.000000 25.000015
v 99.999992 25.000000 50.000008
v 99.999985 75.000000 50.000019
v 24.999956 150.000000 100.000015
v 74.999954 150.000000 100.000038
v 49.999962 125.000000 100.000023
v 49.999947 175.000000 100.000023
v 24.999983 50.000000 100.000000
v 74.999985 50.000000 100.000000
v 49.999992 25.000000 100.000000
v 49.999977 75.000000 100.000000
v -75.000023 50.000000 99.999985
v -25.000021 50.000000 99.999985
v -50.000011 25.000000 99.999985
v -50.000023 75.000000 99.999985
v -100.000000 150.000000 24.999977
v -100.000023 150.000000 74.999977
v -100.000015 125.000000 49.999977
v -100.000023 175.000000 49.999977
v -100.000000 50.000000 24.999977
v -100.000023 50.000000 74.999977
v -100.000000 25.000000 49.999977
v -100.000015 75.000000 49.999977
v -99.999977 50.000000 -75.000023
v -99.999985 50.000000 -25.000023
v -99.999977 25.000000 -50.000023
v -99.999985 75.000000 -50.000023
v 25.000017 50.000000 -99.999992
v 75.000015 50.000000 -99.999985
v 50.000023 75.000000 -99.999985
v 50.000011 25.000000 -99.999992
v 25.000027 150.000000 -99.999985
v 75.000038 150.000000 -99.999962
v 50.000034 175.000000 -99.999969
v 50.000023 125.000000 -99.999985
v -74.999985 150.000000 -100.000000
v -24.999979 150.000000 -99.999992
v -49.999985 175.000000 -99.999992
v -49.999981 125.000000 -100.000000
v -74.999969 50.000000 -100.000023
v -24.999977 50.000000 -100.000000
v -49.999977 75.000000 -100.000015
v -49.999973 25.000000 -100.000023
v -99.999985 150.000000 -75.000015
v -100.000000 150.000000 -25.000017
v -99.999985 125.000000 -50.000019
v -100.000000 175.000000 -50.000011
v -75.000031 150.000000 99.999977
v -25.000038 150.000000 99.999992
v -50.000031 125.000000 99.999985
v -50.000042 175.000000 99.999985
v 99.999962 150.000000 75.000046
v 99.999977 150.000000 25.000042
v 99.999977 125.000000 50.000034
v 99.999962 175.000000 50.000046
v -50.000034 200.000000 74.999985
v -50.000023 200.000000 24.999996
v -25.000032 200.000000 50.000000
v -75.000023 200.000000 49.999981
v -75.000000 0.000000 49.999981
v -24.999996 0.000000 49.999985
v -49.999992 0.000000 24.999983
v -50.000000 0.000000 74.999985
v -24.999998 0.000000 74.999985
v -24.999996 0.000000 24.999985
v -74.999992 0.000000 24.999977
v -75.000015 200.000000 24.999987
v -25.000023 200.000000 25.000006
v -25.000042 200.000000 75.000000
v 99.999977 175.000000 25.000048
v 99.999985 125.000000 25.000036
v 99.999962 125.000000 75.000038
v -25.000044 175.000000 99.999992
v -25.000032 125.000000 99.999992
v -75.000023 125.000000 99.999985
v -100.000000 175.000000 -25.000017
v -99.999992 125.000000 -25.000017
v -99.999985 125.000000 -75.000023
v -24.999977 25.000000 -100.000015
v -24.999977 75.000000 -100.000000
v -74.999977 75.000000 -100.000023
v -24.999977 125.000000 -100.000000
v -24.999983 175.000000 -99.999985
v -74.999985 175.000000 -100.000000
v 75.000023 125.000000 -99.999977
v 75.000038 175.000000 -99.999962
v 25.000031 175.000000 -99.999977
v 75.000008 25.000000 -99.999985
v 75.000023 75.000000 -99.999985
v 25.000023 75.000000 -99.999992
v -99.999992 75.000000 -25.000023
v -99.999985 25.000000 -25.000023
v -99.999969 25.000000 -75.000023
v -100.000023 75.000000 74.999977
v -100.000015 25.000000 74.999977
v -99.999992 25.000000 24.999973
v -100.000023 175.000000 74.999969
v -100.000023 125.000000 74.999977
v -100.000000 125.000000 24.999977
v -25.000023 75.000000 99.999992
v -25.000011 25.000000 99.999985
v -75.000015 25.000000 99.999985
v 74.999977 75.000000 100.000015
v 74.999985 25.000000 100.000000
v 24.999990 25.000000 99.999992
v 74.999939 175.000000 100.000038
v 74.999962 125.000000 100.000023
v 24.999962 125.000000 100.000015
v 99.999985 75.000000 25.000021
v 100.000000 25.000000 25.000010
v 99.999985 25.000000 75.000000
v 100.000015 75.000000 -74.999977
v 100.000000 25.000000 -74.999985
v 100.000000 25.000000 -24.999989
v 100.000038 175.000000 -74.999954
v 100.000023 125.000000 -74.999962
v 100.000000 125.000000 -24.999964
v 24.999977 200.000000 25.000023
v 74.999977 200.000000 25.000044
v 74.999954 200.000000 75.000046
v 25.000017 200.000000 -74.999969
v 75.000031 200.000000 -74.999954
v 75.000000 200.000000 -24.999956
v -74.999992 200.000000 -75.000000
v -24.999990 200.000000 -74.999985
v -25.000006 200.000000 -24.999990
v -24.999990 0.000000 -25.000017
v -24.999981 0.000000 -75.000015
v -74.999977 0.000000 -75.000031
v 75.000000 0.000000 -24.999996
v 75.000008 0.000000 -75.000000
v 25.000011 0.000000 -75.000008
v 75.000000 0.000000 75.000000
v 75.000000 0.000000 25.000000
v 25.000004 0.000000 24.999990
v 25.000000 0.000000 74.999985
v 25.000006 0.000000 -25.000006
v -74.999985 0.000000 -25.000023
v -75.000008 200.000000 -25.000006
v 24.999996 200.000000 -24.999971
v 24.999956 200.000000 75.000023
v 100.000000 175.000000 -24.999952
v 100.000000 75.000000 -24.999977
v 99.999977 75.000000 75.000023
v 24.999949 175.000000 100.000015
v 24.999977 75.000000 100.000000
v -75.000023 75.000000 99.999985
v -100.000015 175.000000 24.999979
v -100.000000 75.000000 24.999977
v -99.999985 75.000000 -75.000023
v 25.000015 25.000000 -100.000000
v 25.000023 125.000000 -99.999985
v -74.999977 125.000000 -100.000015
v -74.999969 25.000000 -100.000023
v -99.999992 175.000000 -75.000008
v -75.000038 175.000000 99.999977
v 99.999954 175.000000 75.000046
v -75.000038 200.000000 74.999977
v -75.000000 0.000000 74.999985
vn 0.0000 -1.0000 0.0000
vn 0.0000 1.0000 0.0000
vn 1.0000 0.0000 0.0000
vn -0.0000 -0.0000 1.0000
vn -1.0000 -0.0000 -0.0000
vn 0.0000 0.0000 -1.0000
usemtl Material
s off
f 386//1 102//1 3//1 164//1
f 385//2 170//2 7//2 109//2
f 384//3 107//3 6//3 103//3
f 383//4 109//4 7//4 105//4
f 382//5 110//5 8//5 106//5
f 381//6 100//6 4//6 166//6
f 380//6 123//6 16//6 154//6
f 379//6 124//6 21//6 173//6
f 378//6 112//6 10//6 174//6
f 377//5 127//5 16//5 118//5
f 376//5 128//5 22//5 177//5
f 375//5 122//5 20//5 178//5
f 374//4 131//4 15//4 117//4
f 373//4 132//4 23//4 181//4
f 372//4 121//4 19//4 182//4
f 371//3 135//3 13//3 115//3
f 370//3 136//3 24//3 185//3
f 369//3 119//3 17//3 186//3
f 368//2 139//2 19//2 121//2
f 367//2 140//2 25//2 189//2
f 366//2 158//2 20//2 190//2
f 365//1 143//1 14//1 152//1
f 364//1 144//1 26//1 193//1
f 363//1 114//1 12//1 194//1
f 362//1 195//1 74//1 146//1
f 361//1 196//1 75//1 197//1
f 360//1 162//1 42//1 198//1
f 359//1 199//1 73//1 145//1
f 358//1 200//1 76//1 201//1
f 357//1 192//1 72//1 202//1
f 356//1 203//1 32//1 104//1
f 355//1 204//1 77//1 205//1
f 354//1 191//1 71//1 206//1
f 353//2 207//2 70//2 142//2
f 352//2 208//2 78//2 209//2
f 351//2 110//2 38//2 210//2
f 350//2 211//2 69//2 141//2
f 349//2 212//2 79//2 213//2
f 348//2 188//2 68//2 214//2
f 347//2 215//2 49//2 169//2
f 346//2 216//2 80//2 217//2
f 345//2 187//2 67//2 218//2
f 344//3 219//3 66//3 138//3
f 343//3 220//3 81//3 221//3
f 342//3 167//3 47//3 222//3
f 341//3 223//3 65//3 137//3
f 340//3 224//3 82//3 225//3
f 339//3 184//3 64//3 226//3
f 338//3 227//3 43//3 163//3
f 337//3 228//3 83//3 229//3
f 336//3 183//3 63//3 230//3
f 335//4 231//4 62//4 134//4
f 334//4 232//4 84//4 233//4
f 333//4 169//4 49//4 234//4
f 332//4 235//4 61//4 133//4
f 331//4 236//4 85//4 237//4
f 330//4 180//4 60//4 238//4
f 329//4 239//4 45//4 165//4
f 328//4 240//4 86//4 241//4
f 327//4 179//4 59//4 242//4
f 326//5 243//5 58//5 130//5
f 325//5 244//5 87//5 245//5
f 324//5 170//5 50//5 246//5
f 323//5 247//5 57//5 129//5
f 322//5 248//5 88//5 249//5
f 321//5 176//5 56//5 250//5
f 320//5 251//5 46//5 166//5
f 319//5 252//5 89//5 253//5
f 318//5 175//5 55//5 254//5
f 317//6 255//6 54//6 126//6
f 316//6 256//6 90//6 257//6
f 315//6 160//6 40//6 258//6
f 314//6 259//6 53//6 125//6
f 313//6 260//6 91//6 261//6
f 312//6 172//6 52//6 262//6
f 311//6 263//6 34//6 106//6
f 310//6 264//6 92//6 265//6
f 309//6 171//6 51//6 266//6
f 308//6 267//6 46//6 118//6
f 307//6 268//6 93//6 269//6
f 306//6 148//6 28//6 270//6
f 305//5 271//5 34//5 154//5
f 304//5 272//5 94//5 273//5
f 303//5 158//5 38//5 274//5
f 302//4 275//4 33//4 153//4
f 301//4 276//4 95//4 277//4
f 300//4 157//4 37//4 278//4
f 299//3 279//3 31//3 151//3
f 298//3 280//3 96//3 281//3
f 297//3 155//3 35//3 282//3
f 296//2 283//2 37//2 157//2
f 295//2 284//2 97//2 285//2
f 294//2 122//2 50//2 286//2
f 293//1 287//1 44//1 116//1
f 292//1 288//1 98//1 289//1
f 291//1 150//1 30//1 290//1
f 288//1 291//1 290//1 98//1
f 74//1 194//1 291//1 288//1
f 194//1 12//1 150//1 291//1
f 191//1 292//1 289//1 71//1
f 26//1 146//1 292//1 191//1
f 146//1 74//1 288//1 292//1
f 143//1 293//1 116//1 14//1
f 71//1 289//1 293//1 143//1
f 289//1 98//1 287//1 293//1
f 284//2 294//2 286//2 97//2
f 70//2 190//2 294//2 284//2
f 190//2 20//2 122//2 294//2
f 187//2 295//2 285//2 67//2
f 25//2 142//2 295//2 187//2
f 142//2 70//2 284//2 295//2
f 139//2 296//2 157//2 19//2
f 67//2 285//2 296//2 139//2
f 285//2 97//2 283//2 296//2
f 280//3 297//3 282//3 96//3
f 66//3 186//3 297//3 280//3
f 186//3 17//3 155//3 297//3
f 183//3 298//3 281//3 63//3
f 24//3 138//3 298//3 183//3
f 138//3 66//3 280//3 298//3
f 135//3 299//3 151//3 13//3
f 63//3 281//3 299//3 135//3
f 281//3 96//3 279//3 299//3
f 276//4 300//4 278//4 95//4
f 62//4 182//4 300//4 276//4
f 182//4 19//4 157//4 300//4
f 179//4 301//4 277//4 59//4
f 23//4 134//4 301//4 179//4
f 134//4 62//4 276//4 301//4
f 131//4 302//4 153//4 15//4
f 59//4 277//4 302//4 131//4
f 277//4 95//4 275//4 302//4
f 272//5 303//5 274//5 94//5
f 58//5 178//5 303//5 272//5
f 178//5 20//5 158//5 303//5
f 175//5 304//5 273//5 55//5
f 22//5 130//5 304//5 175//5
f 130//5 58//5 272//5 304//5
f 127//5 305//5 154//5 16//5
f 55//5 273//5 305//5 127//5
f 273//5 94//5 271//5 305//5
f 268//6 306//6 270//6 93//6
f 54//6 174//6 306//6 268//6
f 174//6 10//6 148//6 306//6
f 171//6 307//6 269//6 51//6
f 21//6 126//6 307//6 171//6
f 126//6 54//6 268//6 307//6
f 123//6 308//6 118//6 16//6
f 51//6 269//6 308//6 123//6
f 269//6 93//6 267//6 308//6
f 264//6 309//6 266//6 92//6
f 53//6 173//6 309//6 264//6
f 173//6 21//6 171//6 309//6
f 156//6 310//6 265//6 36//6
f 18//6 125//6 310//6 156//6
f 125//6 53//6 264//6 310//6
f 108//6 311//6 106//6 8//6
f 36//6 265//6 311//6 108//6
f 265//6 92//6 263//6 311//6
f 260//6 312//6 262//6 91//6
f 29//6 149//6 312//6 260//6
f 149//6 11//6 172//6 312//6
f 168//6 313//6 261//6 48//6
f 5//6 101//6 313//6 168//6
f 101//6 29//6 260//6 313//6
f 120//6 314//6 125//6 18//6
f 48//6 261//6 314//6 120//6
f 261//6 91//6 259//6 314//6
f 256//6 315//6 258//6 90//6
f 41//6 161//6 315//6 256//6
f 161//6 1//6 160//6 315//6
f 172//6 316//6 257//6 52//6
f 11//6 113//6 316//6 172//6
f 113//6 41//6 256//6 316//6
f 124//6 317//6 126//6 21//6
f 52//6 257//6 317//6 124//6
f 257//6 90//6 255//6 317//6
f 252//5 318//5 254//5 89//5
f 57//5 177//5 318//5 252//5
f 177//5 22//5 175//5 318//5
f 152//5 319//5 253//5 32//5
f 14//5 129//5 319//5 152//5
f 129//5 57//5 252//5 319//5
f 104//5 320//5 166//5 4//5
f 32//5 253//5 320//5 104//5
f 253//5 89//5 251//5 320//5
f 248//5 321//5 250//5 88//5
f 45//5 117//5 321//5 248//5
f 117//5 15//5 176//5 321//5
f 164//5 322//5 249//5 44//5
f 3//5 165//5 322//5 164//5
f 165//5 45//5 248//5 322//5
f 116//5 323//5 129//5 14//5
f 44//5 249//5 323//5 116//5
f 249//5 88//5 247//5 323//5
f 244//5 324//5 246//5 87//5
f 33//5 105//5 324//5 244//5
f 105//5 7//5 170//5 324//5
f 176//5 325//5 245//5 56//5
f 15//5 153//5 325//5 176//5
f 153//5 33//5 244//5 325//5
f 128//5 326//5 130//5 22//5
f 56//5 245//5 326//5 128//5
f 245//5 87//5 243//5 326//5
f 240//4 327//4 242//4 86//4
f 61//4 181//4 327//4 240//4
f 181//4 23//4 179//4 327//4
f 150//4 328//4 241//4 30//4
f 12//4 133//4 328//4 150//4
f 133//4 61//4 240//4 328//4
f 102//4 329//4 165//4 3//4
f 30//4 241//4 329//4 102//4
f 241//4 86//4 239//4 329//4
f 236//4 330//4 238//4 85//4
f 43//4 115//4 330//4 236//4
f 115//4 13//4 180//4 330//4
f 162//4 331//4 237//4 42//4
f 2//4 163//4 331//4 162//4
f 163//4 43//4 236//4 331//4
f 114//4 332//4 133//4 12//4
f 42//4 237//4 332//4 114//4
f 237//4 85//4 235//4 332//4
f 232//4 333//4 234//4 84//4
f 31//4 103//4 333//4 232//4
f 103//4 6//4 169//4 333//4
f 180//4 334//4 233//4 60//4
f 13//4 151//4 334//4 180//4
f 151//4 31//4 232//4 334//4
f 132//4 335//4 134//4 23//4
f 60//4 233//4 335//4 132//4
f 233//4 84//4 231//4 335//4
f 228//3 336//3 230//3 83//3
f 65//3 185//3 336//3 228//3
f 185//3 24//3 183//3 336//3
f 147//3 337//3 229//3 27//3
f 9//3 137//3 337//3 147//3
f 137//3 65//3 228//3 337//3
f 99//3 338//3 163//3 2//3
f 27//3 229//3 338//3 99//3
f 229//3 83//3 227//3 338//3
f 224//3 339//3 226//3 82//3
f 41//3 113//3 339//3 224//3
f 113//3 11//3 184//3 339//3
f 159//3 340//3 225//3 39//3
f 1//3 161//3 340//3 159//3
f 161//3 41//3 224//3 340//3
f 111//3 341//3 137//3 9//3
f 39//3 225//3 341//3 111//3
f 225//3 82//3 223//3 341//3
f 220//3 342//3 222//3 81//3
f 29//3 101//3 342//3 220//3
f 101//3 5//3 167//3 342//3
f 184//3 343//3 221//3 64//3
f 11//3 149//3 343//3 184//3
f 149//3 29//3 220//3 343//3
f 136//3 344//3 138//3 24//3
f 64//3 221//3 344//3 136//3
f 221//3 81//3 219//3 344//3
f 216//2 345//2 218//2 80//2
f 69//2 189//2 345//2 216//2
f 189//2 25//2 187//2 345//2
f 155//2 346//2 217//2 35//2
f 17//2 141//2 346//2 155//2
f 141//2 69//2 216//2 346//2
f 107//2 347//2 169//2 6//2
f 35//2 217//2 347//2 107//2
f 217//2 80//2 215//2 347//2
f 212//2 348//2 214//2 79//2
f 48//2 120//2 348//2 212//2
f 120//2 18//2 188//2 348//2
f 167//2 349//2 213//2 47//2
f 5//2 168//2 349//2 167//2
f 168//2 48//2 212//2 349//2
f 119//2 350//2 141//2 17//2
f 47//2 213//2 350//2 119//2
f 213//2 79//2 211//2 350//2
f 208//2 351//2 210//2 78//2
f 36//2 108//2 351//2 208//2
f 108//2 8//2 110//2 351//2
f 188//2 352//2 209//2 68//2
f 18//2 156//2 352//2 188//2
f 156//2 36//2 208//2 352//2
f 140//2 353//2 142//2 25//2
f 68//2 209//2 353//2 140//2
f 209//2 78//2 207//2 353//2
f 204//1 354//1 206//1 77//1
f 73//1 193//1 354//1 204//1
f 193//1 26//1 191//1 354//1
f 148//1 355//1 205//1 28//1
f 10//1 145//1 355//1 148//1
f 145//1 73//1 204//1 355//1
f 100//1 356//1 104//1 4//1
f 28//1 205//1 356//1 100//1
f 205//1 77//1 203//1 356//1
f 200//1 357//1 202//1 76//1
f 39//1 111//1 357//1 200//1
f 111//1 9//1 192//1 357//1
f 160//1 358//1 201//1 40//1
f 1//1 159//1 358//1 160//1
f 159//1 39//1 200//1 358//1
f 112//1 359//1 145//1 10//1
f 40//1 201//1 359//1 112//1
f 201//1 76//1 199//1 359//1
f 196//1 360//1 198//1 75//1
f 27//1 99//1 360//1 196//1
f 99//1 2//1 162//1 360//1
f 192//1 361//1 197//1 72//1
f 9//1 147//1 361//1 192//1
f 147//1 27//1 196//1 361//1
f 144//1 362//1 146//1 26//1
f 72//1 197//1 362//1 144//1
f 197//1 75//1 195//1 362//1
f 195//1 363//1 194//1 74//1
f 75//1 198//1 363//1 195//1
f 198//1 42//1 114//1 363//1
f 199//1 364//1 193//1 73//1
f 76//1 202//1 364//1 199//1
f 202//1 72//1 144//1 364//1
f 203//1 365//1 152//1 32//1
f 77//1 206//1 365//1 203//1
f 206//1 71//1 143//1 365//1
f 207//2 366//2 190//2 70//2
f 78//2 210//2 366//2 207//2
f 210//2 38//2 158//2 366//2
f 211//2 367//2 189//2 69//2
f 79//2 214//2 367//2 211//2
f 214//2 68//2 140//2 367//2
f 215//2 368//2 121//2 49//2
f 80//2 218//2 368//2 215//2
f 218//2 67//2 139//2 368//2
f 219//3 369//3 186//3 66//3
f 81//3 222//3 369//3 219//3
f 222//3 47//3 119//3 369//3
f 223//3 370//3 185//3 65//3
f 82//3 226//3 370//3 223//3
f 226//3 64//3 136//3 370//3
f 227//3 371//3 115//3 43//3
f 83//3 230//3 371//3 227//3
f 230//3 63//3 135//3 371//3
f 231//4 372//4 182//4 62//4
f 84//4 234//4 372//4 231//4
f 234//4 49//4 121//4 372//4
f 235//4 373//4 181//4 61//4
f 85//4 238//4 373//4 235//4
f 238//4 60//4 132//4 373//4
f 239//4 374//4 117//4 45//4
f 86//4 242//4 374//4 239//4
f 242//4 59//4 131//4 374//4
f 243//5 375//5 178//5 58//5
f 87//5 246//5 375//5 243//5
f 246//5 50//5 122//5 375//5
f 247//5 376//5 177//5 57//5
f 88//5 250//5 376//5 247//5
f 250//5 56//5 128//5 376//5
f 251//5 377//5 118//5 46//5
f 89//5 254//5 377//5 251//5
f 254//5 55//5 127//5 377//5
f 255//6 378//6 174//6 54//6
f 90//6 258//6 378//6 255//6
f 258//6 40//6 112//6 378//6
f 259//6 379//6 173//6 53//6
f 91//6 262//6 379//6 259//6
f 262//6 52//6 124//6 379//6
f 263//6 380//6 154//6 34//6
f 92//6 266//6 380//6 263//6
f 266//6 51//6 123//6 380//6
f 267//6 381//6 166//6 46//6
f 93//6 270//6 381//6 267//6
f 270//6 28//6 100//6 381//6
f 271//5 382//5 106//5 34//5
f 94//5 274//5 382//5 271//5
f 274//5 38//5 110//5 382//5
f 275//4 383//4 105//4 33//4
f 95//4 278//4 383//4 275//4
f 278//4 37//4 109//4 383//4
f 279//3 384//3 103//3 31//3
f 96//3 282//3 384//3 279//3
f 282//3 35//3 107//3 384//3
f 283//2 385//2 109//2 37//2
f 97//2 286//2 385//2 283//2
f 286//2 50//2 170//2 385//2
f 287//1 386//1 164//1 44//1
f 98//1 290//1 386//1 287//1
f 290//1 30//1 102//1 386//1
