# Blender v2.79 (sub 0) OBJ File: ''
# www.blender.org
mtllib test.mtl
o Cube
v 30.000000 -30.000000 -29.999998
v 30.000000 -30.000000 30.000000
v -30.000004 -30.000000 29.999994
v -29.999989 -30.000000 -30.000011
v 30.000015 30.000000 -29.999985
v 29.999981 30.000000 30.000017
v -30.000011 30.000000 29.999989
v -29.999998 30.000000 -30.000000
v 30.000000 -30.000000 0.000002
v 0.000005 -30.000000 -30.000004
v 30.000008 0.000000 -29.999990
v 0.000000 -30.000000 29.999996
v 29.999989 0.000000 30.000008
v -29.999996 -30.000000 -0.000009
v -30.000008 0.000000 29.999992
v -29.999992 0.000000 -30.000008
v 29.999996 30.000000 0.000016
v 0.000007 30.000000 -29.999992
v -0.000016 30.000000 30.000004
v -30.000004 30.000000 -0.000005
v 0.000007 0.000000 -30.000000
v -30.000000 0.000000 -0.000007
v -0.000009 0.000000 30.000000
v 29.999998 0.000000 0.000009
v -0.000004 30.000000 0.000005
v 0.000002 -30.000000 -0.000004
v 30.000000 -30.000000 15.000000
v -14.999992 -30.000000 -30.000008
v 30.000011 15.000000 -29.999987
v -15.000002 -30.000000 29.999996
v 29.999985 15.000000 30.000015
v -29.999992 -30.000000 -15.000009
v -30.000008 15.000000 29.999990
v -29.999996 15.000000 -30.000004
v 29.999989 30.000000 15.000016
v -14.999996 30.000000 -29.999996
v -15.000014 30.000000 29.999996
v -30.000000 30.000000 -15.000004
v 30.000000 -30.000000 -14.999998
v 15.000004 -30.000000 -30.000000
v 30.000004 -15.000000 -29.999994
v 15.000000 -30.000000 29.999998
v 29.999994 -15.000000 30.000004
v -30.000000 -30.000000 14.999992
v -30.000008 -15.000000 29.999992
v -29.999990 -15.000000 -30.000008
v 30.000008 30.000000 -14.999984
v 15.000010 30.000000 -29.999989
v 14.999982 30.000000 30.000011
v -30.000008 30.000000 14.999992
v -14.999992 0.000000 -30.000004
v 15.000008 0.000000 -29.999996
v 0.000007 15.000000 -29.999996
v 0.000006 -15.000000 -30.000000
v -29.999996 0.000000 -15.000008
v -30.000004 0.000000 14.999992
v -29.999998 -15.000000 -0.000008
v -30.000000 15.000000 -0.000006
v -15.000008 0.000000 29.999996
v 14.999990 0.000000 30.000004
v -0.000004 -15.000000 29.999998
v -0.000013 15.000000 30.000000
v 29.999992 0.000000 15.000008
v 30.000004 0.000000 -14.999991
v 30.000000 -15.000000 0.000005
v 29.999996 15.000000 0.000013
v -0.000010 30.000000 15.000004
v 0.000001 30.000000 -14.999993
v 14.999995 30.000000 0.000011
v -15.000004 30.000000 0.000000
v -14.999997 -30.000000 -0.000006
v 15.000000 -30.000000 -0.000001
v 0.000004 -30.000000 -15.000004
v 0.000001 -30.000000 14.999996
v 15.000000 -30.000000 14.999998
v 15.000002 -30.000000 -15.000000
v -14.999994 -30.000000 -15.000008
v -15.000000 30.000000 -14.999998
v 15.000004 30.000000 -14.999990
v 14.999990 30.000000 15.000010
v 30.000004 15.000000 -14.999988
v 30.000000 -15.000000 -14.999994
v 29.999996 -15.000000 15.000004
v 14.999987 15.000000 30.000008
v 14.999994 -15.000000 30.000000
v -15.000008 -15.000000 29.999996
v -30.000004 15.000000 14.999992
v -30.000004 -15.000000 14.999992
v -29.999994 -15.000000 -15.000008
v 15.000006 -15.000000 -29.999996
v 15.000009 15.000000 -29.999992
v -14.999994 15.000000 -30.000000
v -14.999992 -15.000000 -30.000004
v -29.999998 15.000000 -15.000004
v -15.000010 15.000000 29.999996
v 29.999990 15.000000 15.000012
v -15.000009 30.000000 14.999998
v -14.999999 -30.000000 14.999994
vn 0.0000 -1.0000 -0.0000
vn 0.0000 1.0000 0.0000
vn 1.0000 0.0000 0.0000
vn -0.0000 0.0000 1.0000
vn -1.0000 -0.0000 -0.0000
vn 0.0000 0.0000 -1.0000
usemtl Material
s off
f 98//1 30//1 3//1 44//1
f 97//2 50//2 7//2 37//2
f 96//3 35//3 6//3 31//3
f 95//4 37//4 7//4 33//4
f 94//5 38//5 8//5 34//5
f 93//6 28//6 4//6 46//6
f 92//6 51//6 16//6 34//6
f 91//6 52//6 21//6 53//6
f 90//6 40//6 10//6 54//6
f 89//5 55//5 16//5 46//5
f 88//5 56//5 22//5 57//5
f 87//5 50//5 20//5 58//5
f 86//4 59//4 15//4 45//4
f 85//4 60//4 23//4 61//4
f 84//4 49//4 19//4 62//4
f 83//3 63//3 13//3 43//3
f 82//3 64//3 24//3 65//3
f 81//3 47//3 17//3 66//3
f 80//2 67//2 19//2 49//2
f 79//2 68//2 25//2 69//2
f 78//2 38//2 20//2 70//2
f 77//1 71//1 14//1 32//1
f 76//1 72//1 26//1 73//1
f 75//1 42//1 12//1 74//1
f 72//1 75//1 74//1 26//1
f 9//1 27//1 75//1 72//1
f 27//1 2//1 42//1 75//1
f 40//1 76//1 73//1 10//1
f 1//1 39//1 76//1 40//1
f 39//1 9//1 72//1 76//1
f 28//1 77//1 32//1 4//1
f 10//1 73//1 77//1 28//1
f 73//1 26//1 71//1 77//1
f 68//2 78//2 70//2 25//2
f 18//2 36//2 78//2 68//2
f 36//2 8//2 38//2 78//2
f 47//2 79//2 69//2 17//2
f 5//2 48//2 79//2 47//2
f 48//2 18//2 68//2 79//2
f 35//2 80//2 49//2 6//2
f 17//2 69//2 80//2 35//2
f 69//2 25//2 67//2 80//2
f 64//3 81//3 66//3 24//3
f 11//3 29//3 81//3 64//3
f 29//3 5//3 47//3 81//3
f 39//3 82//3 65//3 9//3
f 1//3 41//3 82//3 39//3
f 41//3 11//3 64//3 82//3
f 27//3 83//3 43//3 2//3
f 9//3 65//3 83//3 27//3
f 65//3 24//3 63//3 83//3
f 60//4 84//4 62//4 23//4
f 13//4 31//4 84//4 60//4
f 31//4 6//4 49//4 84//4
f 42//4 85//4 61//4 12//4
f 2//4 43//4 85//4 42//4
f 43//4 13//4 60//4 85//4
f 30//4 86//4 45//4 3//4
f 12//4 61//4 86//4 30//4
f 61//4 23//4 59//4 86//4
f 56//5 87//5 58//5 22//5
f 15//5 33//5 87//5 56//5
f 33//5 7//5 50//5 87//5
f 44//5 88//5 57//5 14//5
f 3//5 45//5 88//5 44//5
f 45//5 15//5 56//5 88//5
f 32//5 89//5 46//5 4//5
f 14//5 57//5 89//5 32//5
f 57//5 22//5 55//5 89//5
f 52//6 90//6 54//6 21//6
f 11//6 41//6 90//6 52//6
f 41//6 1//6 40//6 90//6
f 48//6 91//6 53//6 18//6
f 5//6 29//6 91//6 48//6
f 29//6 11//6 52//6 91//6
f 36//6 92//6 34//6 8//6
f 18//6 53//6 92//6 36//6
f 53//6 21//6 51//6 92//6
f 51//6 93//6 46//6 16//6
f 21//6 54//6 93//6 51//6
f 54//6 10//6 28//6 93//6
f 55//5 94//5 34//5 16//5
f 22//5 58//5 94//5 55//5
f 58//5 20//5 38//5 94//5
f 59//4 95//4 33//4 15//4
f 23//4 62//4 95//4 59//4
f 62//4 19//4 37//4 95//4
f 63//3 96//3 31//3 13//3
f 24//3 66//3 96//3 63//3
f 66//3 17//3 35//3 96//3
f 67//2 97//2 37//2 19//2
f 25//2 70//2 97//2 67//2
f 70//2 20//2 50//2 97//2
f 71//1 98//1 44//1 14//1
f 26//1 74//1 98//1 71//1
f 74//1 12//1 30//1 98//1
